<svg width="447" height="402" viewBox="0 0 447 402" fill="none" xmlns="http://www.w3.org/2000/svg">
<path d="M8.68303 292.035C8.91782 280.003 7.0622 259.034 8.68303 248.651C6.50913 244.672 6.92895 223.013 7.29853 215.403C8.05289 199.869 7.76219 187.598 7.68619 172.018C7.60313 154.991 6.49085 136.722 7.46467 119.916C11.0157 58.6335 34.0051 55.6028 47.7814 49.7706C54.8831 46.7641 62.0314 48.6508 69.1581 47.5406C75.4169 46.5656 81.6727 45.6878 87.9319 44.7023C104.289 42.1269 120.954 43.066 137.331 44.3983C156.96 45.9951 176.473 51.5952 196.117 51.5952C210.498 51.5952 224.979 56.6082 239.341 54.8389C262.247 52.0169 285.077 54.0114 307.957 49.7706C319.177 47.691 330.676 46.5024 341.822 41.6613C353.744 36.4831 366.194 33.7224 378.179 35.5794C390.967 37.5609 403.016 40.5205 415.505 51.5952C421.363 56.7903 427.072 62.5594 432.617 71.2603C434.444 74.1257 437.11 77.5963 438.072 84.6406C441.303 108.291 439.541 139.61 439.346 164.618C439.07 199.999 437.129 233.58 436.079 268.62C434.961 305.889 434.078 374.133 422.483 390.563C420.494 393.382 418.373 393.999 416.28 393.199C412.1 391.6 407.849 393.459 403.654 392.388C395.515 390.309 387.726 380.896 379.591 379.21C368.08 376.825 356.085 385.435 344.591 388.029C339.789 389.113 334.999 389.144 330.192 389.144C323.479 389.144 316.744 392.494 310.006 392.895C300.914 393.436 292.21 391.575 283.147 389.144C250.366 380.352 217.246 381.865 184.404 379.818C172.537 379.079 159.991 375.746 148.019 379.007C140.531 381.047 133.036 383.75 125.535 385.089C120.997 385.9 116.54 382.515 112.022 382.657C107.703 382.792 103.37 385.184 99.0356 385.596C88.0953 386.637 77.1625 389.635 66.2229 390.867C56.8381 391.924 47.4512 391.132 38.0898 394.212C30.0842 396.847 17.3403 393.789 11.452 370.797C7.78851 356.492 6.46948 339.776 7.46467 320.519C7.95424 311.046 8.495 301.672 8.68303 292.035Z" fill="#C00A31" stroke="black" stroke-width="14" stroke-linecap="round"/>
<path d="M8.68303 264.035C8.91782 252.003 7.0622 231.034 8.68303 220.651C6.50913 216.672 6.92895 195.013 7.29853 187.403C8.05289 171.869 7.76219 159.598 7.68619 144.018C7.60313 126.991 6.49085 108.722 7.46467 91.9159C11.0157 30.6335 34.0051 27.6028 47.7814 21.7706C54.8831 18.7641 62.0314 20.6508 69.1581 19.5406C75.4169 18.5656 81.6727 17.6878 87.9319 16.7023C104.289 14.1269 120.954 15.066 137.331 16.3983C156.96 17.9951 176.473 23.5952 196.117 23.5952C210.498 23.5952 224.979 28.6082 239.341 26.8389C262.247 24.0169 285.077 26.0114 307.957 21.7706C319.177 19.691 330.676 18.5024 341.822 13.6613C353.744 8.48309 366.194 5.72241 378.179 7.57941C390.967 9.56094 403.016 12.5205 415.505 23.5952C421.363 28.7903 427.072 34.5594 432.617 43.2603C434.444 46.1257 437.11 49.5963 438.072 56.6406C441.303 80.2913 439.541 111.61 439.346 136.618C439.07 171.999 437.129 205.58 436.079 240.62C434.961 277.889 434.078 346.133 422.483 362.563C420.494 365.382 418.373 365.999 416.28 365.199C412.1 363.6 407.849 365.459 403.654 364.388C395.515 362.309 387.726 352.896 379.591 351.21C368.08 348.825 356.085 357.435 344.591 360.029C339.789 361.113 334.999 361.144 330.192 361.144C323.479 361.144 316.744 364.494 310.006 364.895C300.914 365.436 292.21 363.575 283.147 361.144C250.366 352.352 217.246 353.865 184.404 351.818C172.537 351.079 159.991 347.746 148.019 351.007C140.531 353.047 133.036 355.75 125.535 357.089C120.997 357.9 116.54 354.515 112.022 354.657C107.703 354.792 103.37 357.184 99.0356 357.596C88.0953 358.637 77.1625 361.635 66.2229 362.867C56.8381 363.924 47.4512 363.132 38.0898 366.212C30.0842 368.847 17.3403 365.789 11.452 342.797C7.78851 328.492 6.46948 311.776 7.46467 292.519C7.95424 283.046 8.495 273.672 8.68303 264.035Z" fill="white" stroke="black" stroke-width="14" stroke-linecap="round"/>
<path d="M328.587 103.738C327.834 101.524 326.936 100.942 325.533 100.388C322.465 99.2523 317.267 100.971 317.267 100.971C317.267 100.971 133.269 167.029 122.757 174.34C120.494 175.913 119.736 176.845 119.36 177.923C117.542 183.107 123.204 185.408 123.204 185.408L170.629 200.845C170.629 200.845 172.396 201.107 173.026 200.7C183.815 193.884 281.573 132.252 287.211 130.185C288.101 129.922 288.76 130.214 288.585 130.825C286.327 138.748 201.42 214.098 201.42 214.098C201.42 214.098 201.096 214.505 200.892 214.972L200.781 214.913L196.357 261.894C196.357 261.894 194.502 276.283 208.913 261.894C219.081 251.729 228.918 243.224 233.842 239.117C250.149 250.36 267.698 262.797 275.273 269.292C279.076 272.554 282.259 273.079 284.878 272.991C292.067 272.729 294.074 264.836 294.074 264.836C294.074 264.836 327.604 130.068 328.724 112.01C328.835 110.233 328.987 109.126 328.998 107.903C329.019 106.213 328.861 104.524 328.587 103.738Z" fill="black"/>
</svg>
